<mxfile host="Electron" agent="Mozilla/5.0 (Windows NT 10.0; Win64; x64) AppleWebKit/537.36 (KHTML, like Gecko) draw.io/26.2.15 Chrome/134.0.6998.205 Electron/35.2.1 Safari/537.36" version="26.2.15">
  <diagram id="C5RBs43oDa-KdzZeNtuy" name="Page-1">
    <mxGraphModel dx="1281" dy="634" grid="1" gridSize="10" guides="1" tooltips="1" connect="1" arrows="1" fold="1" page="1" pageScale="1" pageWidth="827" pageHeight="1169" math="0" shadow="0">
      <root>
        <mxCell id="WIyWlLk6GJQsqaUBKTNV-0" />
        <mxCell id="WIyWlLk6GJQsqaUBKTNV-1" parent="WIyWlLk6GJQsqaUBKTNV-0" />
        <mxCell id="sP8Fx88i0O9ENRdiWOan-11" style="edgeStyle=orthogonalEdgeStyle;rounded=0;orthogonalLoop=1;jettySize=auto;html=1;entryX=0.5;entryY=0;entryDx=0;entryDy=0;" edge="1" parent="WIyWlLk6GJQsqaUBKTNV-1" source="sP8Fx88i0O9ENRdiWOan-0" target="sP8Fx88i0O9ENRdiWOan-5">
          <mxGeometry relative="1" as="geometry" />
        </mxCell>
        <mxCell id="sP8Fx88i0O9ENRdiWOan-18" style="edgeStyle=orthogonalEdgeStyle;rounded=0;orthogonalLoop=1;jettySize=auto;html=1;entryX=0.5;entryY=1;entryDx=0;entryDy=0;" edge="1" parent="WIyWlLk6GJQsqaUBKTNV-1" source="sP8Fx88i0O9ENRdiWOan-0" target="sP8Fx88i0O9ENRdiWOan-17">
          <mxGeometry relative="1" as="geometry" />
        </mxCell>
        <mxCell id="sP8Fx88i0O9ENRdiWOan-44" style="edgeStyle=orthogonalEdgeStyle;rounded=0;orthogonalLoop=1;jettySize=auto;html=1;" edge="1" parent="WIyWlLk6GJQsqaUBKTNV-1" source="sP8Fx88i0O9ENRdiWOan-0" target="sP8Fx88i0O9ENRdiWOan-43">
          <mxGeometry relative="1" as="geometry" />
        </mxCell>
        <mxCell id="sP8Fx88i0O9ENRdiWOan-0" value="Ansible" style="rounded=1;whiteSpace=wrap;html=1;" vertex="1" parent="WIyWlLk6GJQsqaUBKTNV-1">
          <mxGeometry x="369" y="640" width="120" height="60" as="geometry" />
        </mxCell>
        <mxCell id="sP8Fx88i0O9ENRdiWOan-1" value="Proxmox&amp;nbsp;&lt;div&gt;Node1&amp;nbsp;&lt;/div&gt;" style="ellipse;whiteSpace=wrap;html=1;rounded=1;" vertex="1" parent="WIyWlLk6GJQsqaUBKTNV-1">
          <mxGeometry x="270" y="830" width="80" height="80" as="geometry" />
        </mxCell>
        <mxCell id="sP8Fx88i0O9ENRdiWOan-3" value="Proxmox&amp;nbsp;&lt;div&gt;Node3&amp;nbsp;&lt;/div&gt;" style="ellipse;whiteSpace=wrap;html=1;rounded=1;" vertex="1" parent="WIyWlLk6GJQsqaUBKTNV-1">
          <mxGeometry x="500" y="830" width="80" height="80" as="geometry" />
        </mxCell>
        <mxCell id="sP8Fx88i0O9ENRdiWOan-4" value="Proxmox&amp;nbsp;&lt;div&gt;Node2&amp;nbsp;&lt;/div&gt;" style="ellipse;whiteSpace=wrap;html=1;rounded=1;" vertex="1" parent="WIyWlLk6GJQsqaUBKTNV-1">
          <mxGeometry x="389" y="830" width="80" height="80" as="geometry" />
        </mxCell>
        <mxCell id="sP8Fx88i0O9ENRdiWOan-12" style="edgeStyle=orthogonalEdgeStyle;rounded=0;orthogonalLoop=1;jettySize=auto;html=1;" edge="1" parent="WIyWlLk6GJQsqaUBKTNV-1" source="sP8Fx88i0O9ENRdiWOan-5" target="sP8Fx88i0O9ENRdiWOan-4">
          <mxGeometry relative="1" as="geometry" />
        </mxCell>
        <mxCell id="sP8Fx88i0O9ENRdiWOan-13" style="edgeStyle=orthogonalEdgeStyle;rounded=0;orthogonalLoop=1;jettySize=auto;html=1;entryX=0.5;entryY=0;entryDx=0;entryDy=0;" edge="1" parent="WIyWlLk6GJQsqaUBKTNV-1" source="sP8Fx88i0O9ENRdiWOan-5" target="sP8Fx88i0O9ENRdiWOan-1">
          <mxGeometry relative="1" as="geometry" />
        </mxCell>
        <mxCell id="sP8Fx88i0O9ENRdiWOan-14" style="edgeStyle=orthogonalEdgeStyle;rounded=0;orthogonalLoop=1;jettySize=auto;html=1;entryX=0.5;entryY=0;entryDx=0;entryDy=0;" edge="1" parent="WIyWlLk6GJQsqaUBKTNV-1" source="sP8Fx88i0O9ENRdiWOan-5" target="sP8Fx88i0O9ENRdiWOan-3">
          <mxGeometry relative="1" as="geometry" />
        </mxCell>
        <mxCell id="sP8Fx88i0O9ENRdiWOan-16" style="edgeStyle=orthogonalEdgeStyle;rounded=0;orthogonalLoop=1;jettySize=auto;html=1;entryX=1;entryY=0.5;entryDx=0;entryDy=0;" edge="1" parent="WIyWlLk6GJQsqaUBKTNV-1" source="sP8Fx88i0O9ENRdiWOan-5" target="sP8Fx88i0O9ENRdiWOan-15">
          <mxGeometry relative="1" as="geometry" />
        </mxCell>
        <mxCell id="sP8Fx88i0O9ENRdiWOan-5" value="Gestio Total" style="whiteSpace=wrap;html=1;aspect=fixed;" vertex="1" parent="WIyWlLk6GJQsqaUBKTNV-1">
          <mxGeometry x="394" y="740" width="70" height="70" as="geometry" />
        </mxCell>
        <mxCell id="sP8Fx88i0O9ENRdiWOan-15" value="Zabbix" style="rhombus;whiteSpace=wrap;html=1;" vertex="1" parent="WIyWlLk6GJQsqaUBKTNV-1">
          <mxGeometry x="150" y="735" width="80" height="80" as="geometry" />
        </mxCell>
        <mxCell id="sP8Fx88i0O9ENRdiWOan-20" style="edgeStyle=orthogonalEdgeStyle;rounded=0;orthogonalLoop=1;jettySize=auto;html=1;" edge="1" parent="WIyWlLk6GJQsqaUBKTNV-1" source="sP8Fx88i0O9ENRdiWOan-17" target="sP8Fx88i0O9ENRdiWOan-19">
          <mxGeometry relative="1" as="geometry" />
        </mxCell>
        <mxCell id="sP8Fx88i0O9ENRdiWOan-17" value="Copias de seguretat" style="shape=parallelogram;perimeter=parallelogramPerimeter;whiteSpace=wrap;html=1;fixedSize=1;" vertex="1" parent="WIyWlLk6GJQsqaUBKTNV-1">
          <mxGeometry x="364.5" y="540" width="129" height="60" as="geometry" />
        </mxCell>
        <mxCell id="sP8Fx88i0O9ENRdiWOan-23" style="edgeStyle=orthogonalEdgeStyle;rounded=0;orthogonalLoop=1;jettySize=auto;html=1;entryX=0;entryY=0.5;entryDx=0;entryDy=0;" edge="1" parent="WIyWlLk6GJQsqaUBKTNV-1" source="sP8Fx88i0O9ENRdiWOan-19" target="sP8Fx88i0O9ENRdiWOan-22">
          <mxGeometry relative="1" as="geometry" />
        </mxCell>
        <mxCell id="sP8Fx88i0O9ENRdiWOan-24" style="edgeStyle=orthogonalEdgeStyle;rounded=0;orthogonalLoop=1;jettySize=auto;html=1;entryX=1;entryY=0.5;entryDx=0;entryDy=0;" edge="1" parent="WIyWlLk6GJQsqaUBKTNV-1" source="sP8Fx88i0O9ENRdiWOan-19" target="sP8Fx88i0O9ENRdiWOan-21">
          <mxGeometry relative="1" as="geometry" />
        </mxCell>
        <mxCell id="sP8Fx88i0O9ENRdiWOan-19" value="Tipus?" style="rhombus;whiteSpace=wrap;html=1;" vertex="1" parent="WIyWlLk6GJQsqaUBKTNV-1">
          <mxGeometry x="389" y="430" width="80" height="80" as="geometry" />
        </mxCell>
        <mxCell id="sP8Fx88i0O9ENRdiWOan-26" style="edgeStyle=orthogonalEdgeStyle;rounded=0;orthogonalLoop=1;jettySize=auto;html=1;entryX=1;entryY=0.5;entryDx=0;entryDy=0;" edge="1" parent="WIyWlLk6GJQsqaUBKTNV-1" source="sP8Fx88i0O9ENRdiWOan-21" target="sP8Fx88i0O9ENRdiWOan-25">
          <mxGeometry relative="1" as="geometry" />
        </mxCell>
        <mxCell id="sP8Fx88i0O9ENRdiWOan-29" style="edgeStyle=orthogonalEdgeStyle;rounded=0;orthogonalLoop=1;jettySize=auto;html=1;entryX=0;entryY=0.5;entryDx=0;entryDy=0;" edge="1" parent="WIyWlLk6GJQsqaUBKTNV-1" source="sP8Fx88i0O9ENRdiWOan-21" target="sP8Fx88i0O9ENRdiWOan-28">
          <mxGeometry relative="1" as="geometry" />
        </mxCell>
        <mxCell id="sP8Fx88i0O9ENRdiWOan-21" value="Auotmatitzada" style="whiteSpace=wrap;html=1;aspect=fixed;" vertex="1" parent="WIyWlLk6GJQsqaUBKTNV-1">
          <mxGeometry x="309" y="340" width="80" height="80" as="geometry" />
        </mxCell>
        <mxCell id="sP8Fx88i0O9ENRdiWOan-30" style="edgeStyle=orthogonalEdgeStyle;rounded=0;orthogonalLoop=1;jettySize=auto;html=1;entryX=1;entryY=0.5;entryDx=0;entryDy=0;" edge="1" parent="WIyWlLk6GJQsqaUBKTNV-1" source="sP8Fx88i0O9ENRdiWOan-22" target="sP8Fx88i0O9ENRdiWOan-28">
          <mxGeometry relative="1" as="geometry" />
        </mxCell>
        <mxCell id="sP8Fx88i0O9ENRdiWOan-32" style="edgeStyle=orthogonalEdgeStyle;rounded=0;orthogonalLoop=1;jettySize=auto;html=1;entryX=0;entryY=0.5;entryDx=0;entryDy=0;" edge="1" parent="WIyWlLk6GJQsqaUBKTNV-1" source="sP8Fx88i0O9ENRdiWOan-22" target="sP8Fx88i0O9ENRdiWOan-31">
          <mxGeometry relative="1" as="geometry" />
        </mxCell>
        <mxCell id="sP8Fx88i0O9ENRdiWOan-22" value="Manual&lt;div&gt;Automatitzada&lt;/div&gt;" style="whiteSpace=wrap;html=1;aspect=fixed;" vertex="1" parent="WIyWlLk6GJQsqaUBKTNV-1">
          <mxGeometry x="469" y="340" width="80" height="80" as="geometry" />
        </mxCell>
        <mxCell id="sP8Fx88i0O9ENRdiWOan-25" value="CRON" style="shape=hexagon;perimeter=hexagonPerimeter2;whiteSpace=wrap;html=1;fixedSize=1;" vertex="1" parent="WIyWlLk6GJQsqaUBKTNV-1">
          <mxGeometry x="150" y="350" width="100" height="60" as="geometry" />
        </mxCell>
        <mxCell id="sP8Fx88i0O9ENRdiWOan-35" style="edgeStyle=orthogonalEdgeStyle;rounded=0;orthogonalLoop=1;jettySize=auto;html=1;entryX=0.5;entryY=1;entryDx=0;entryDy=0;" edge="1" parent="WIyWlLk6GJQsqaUBKTNV-1" source="sP8Fx88i0O9ENRdiWOan-28" target="sP8Fx88i0O9ENRdiWOan-33">
          <mxGeometry relative="1" as="geometry" />
        </mxCell>
        <mxCell id="sP8Fx88i0O9ENRdiWOan-38" style="edgeStyle=orthogonalEdgeStyle;rounded=0;orthogonalLoop=1;jettySize=auto;html=1;" edge="1" parent="WIyWlLk6GJQsqaUBKTNV-1" source="sP8Fx88i0O9ENRdiWOan-28">
          <mxGeometry relative="1" as="geometry">
            <mxPoint x="510" y="250" as="targetPoint" />
          </mxGeometry>
        </mxCell>
        <mxCell id="sP8Fx88i0O9ENRdiWOan-28" value="Tipus&lt;div&gt;Copia&lt;/div&gt;" style="rhombus;whiteSpace=wrap;html=1;" vertex="1" parent="WIyWlLk6GJQsqaUBKTNV-1">
          <mxGeometry x="389" y="260" width="80" height="80" as="geometry" />
        </mxCell>
        <mxCell id="sP8Fx88i0O9ENRdiWOan-31" value="Execucio Script Manual Ansible" style="rounded=1;whiteSpace=wrap;html=1;" vertex="1" parent="WIyWlLk6GJQsqaUBKTNV-1">
          <mxGeometry x="610" y="350" width="120" height="60" as="geometry" />
        </mxCell>
        <mxCell id="sP8Fx88i0O9ENRdiWOan-42" value="" style="edgeStyle=orthogonalEdgeStyle;rounded=0;orthogonalLoop=1;jettySize=auto;html=1;" edge="1" parent="WIyWlLk6GJQsqaUBKTNV-1" source="sP8Fx88i0O9ENRdiWOan-33" target="sP8Fx88i0O9ENRdiWOan-41">
          <mxGeometry relative="1" as="geometry" />
        </mxCell>
        <mxCell id="sP8Fx88i0O9ENRdiWOan-33" value="Local" style="shape=parallelogram;perimeter=parallelogramPerimeter;whiteSpace=wrap;html=1;fixedSize=1;" vertex="1" parent="WIyWlLk6GJQsqaUBKTNV-1">
          <mxGeometry x="280" y="200" width="100" height="50" as="geometry" />
        </mxCell>
        <mxCell id="sP8Fx88i0O9ENRdiWOan-40" value="" style="edgeStyle=orthogonalEdgeStyle;rounded=0;orthogonalLoop=1;jettySize=auto;html=1;" edge="1" parent="WIyWlLk6GJQsqaUBKTNV-1" source="sP8Fx88i0O9ENRdiWOan-36" target="sP8Fx88i0O9ENRdiWOan-39">
          <mxGeometry relative="1" as="geometry" />
        </mxCell>
        <mxCell id="sP8Fx88i0O9ENRdiWOan-36" value="Nuvol" style="shape=parallelogram;perimeter=parallelogramPerimeter;whiteSpace=wrap;html=1;fixedSize=1;" vertex="1" parent="WIyWlLk6GJQsqaUBKTNV-1">
          <mxGeometry x="469" y="200" width="100" height="50" as="geometry" />
        </mxCell>
        <mxCell id="sP8Fx88i0O9ENRdiWOan-39" value="OneDrive" style="ellipse;whiteSpace=wrap;html=1;" vertex="1" parent="WIyWlLk6GJQsqaUBKTNV-1">
          <mxGeometry x="483.5" y="100" width="71" height="70" as="geometry" />
        </mxCell>
        <mxCell id="sP8Fx88i0O9ENRdiWOan-41" value="Cluster Emmagatzegament CEPH" style="whiteSpace=wrap;html=1;" vertex="1" parent="WIyWlLk6GJQsqaUBKTNV-1">
          <mxGeometry x="275" y="115" width="110" height="55" as="geometry" />
        </mxCell>
        <mxCell id="sP8Fx88i0O9ENRdiWOan-46" style="edgeStyle=orthogonalEdgeStyle;rounded=0;orthogonalLoop=1;jettySize=auto;html=1;entryX=0.5;entryY=1;entryDx=0;entryDy=0;" edge="1" parent="WIyWlLk6GJQsqaUBKTNV-1" source="sP8Fx88i0O9ENRdiWOan-43" target="sP8Fx88i0O9ENRdiWOan-45">
          <mxGeometry relative="1" as="geometry" />
        </mxCell>
        <mxCell id="sP8Fx88i0O9ENRdiWOan-43" value="Snapshots" style="shape=parallelogram;perimeter=parallelogramPerimeter;whiteSpace=wrap;html=1;fixedSize=1;" vertex="1" parent="WIyWlLk6GJQsqaUBKTNV-1">
          <mxGeometry x="530" y="640" width="129" height="60" as="geometry" />
        </mxCell>
        <mxCell id="sP8Fx88i0O9ENRdiWOan-48" style="edgeStyle=orthogonalEdgeStyle;rounded=0;orthogonalLoop=1;jettySize=auto;html=1;entryX=0.5;entryY=1;entryDx=0;entryDy=0;" edge="1" parent="WIyWlLk6GJQsqaUBKTNV-1" source="sP8Fx88i0O9ENRdiWOan-45" target="sP8Fx88i0O9ENRdiWOan-31">
          <mxGeometry relative="1" as="geometry" />
        </mxCell>
        <mxCell id="sP8Fx88i0O9ENRdiWOan-45" value="Tipus?" style="rhombus;whiteSpace=wrap;html=1;" vertex="1" parent="WIyWlLk6GJQsqaUBKTNV-1">
          <mxGeometry x="630" y="470" width="80" height="80" as="geometry" />
        </mxCell>
      </root>
    </mxGraphModel>
  </diagram>
</mxfile>
